# Blender v3.2.1 OBJ File: ''
# www.blender.org
mtllib chute2.mtl
o Cube_Cube.001
v -8.552315 1.565860 -8.617015
v -8.552315 6.391188 -8.617013
v 8.751728 1.565860 -8.617015
v 8.751728 6.391188 -8.617013
v -8.552315 1.565855 8.737851
v -8.552315 6.391182 8.737853
v 8.751728 1.565855 8.737851
v 8.751728 6.391182 8.737853
v 7.937127 6.391190 -8.617013
v 7.937127 75.510811 -8.616992
v 8.751728 6.391190 -8.617013
v 8.751728 75.510811 -8.616992
v 7.937126 6.391185 8.665206
v 7.937126 75.510811 8.665227
v 8.751728 6.391185 8.665206
v 8.751728 75.510811 8.665227
v -8.480751 4.377102 -8.955919
v -8.480751 73.496727 -8.955897
v -7.666150 4.377102 -8.955919
v -7.666150 73.496727 -8.955897
v -8.480751 4.377097 8.326300
v -8.480751 73.496727 8.326322
v -7.666151 4.377097 8.326300
v -7.666151 73.496727 8.326322
v -7.343699 6.391189 7.611059
v -7.343699 75.591682 7.611080
v 7.937126 6.391189 7.611060
v 7.937126 75.591682 7.611081
v -7.343699 6.391189 8.665207
v -7.343699 75.591682 8.665228
v 7.937126 6.391189 8.665207
v 7.937126 75.591682 8.665228
v -7.343699 3.391186 -8.388941
v -7.343699 72.591682 -8.388920
v 7.937126 3.391186 -8.388941
v 7.937126 72.591682 -8.388920
v -7.343699 3.391186 -7.334794
v -7.343699 72.591682 -7.334772
v 7.937126 3.391186 -7.334793
v 7.937126 72.591682 -7.334771
vt 0.375000 0.000000
vt 0.625000 0.000000
vt 0.625000 0.250000
vt 0.375000 0.250000
vt 0.625000 0.500000
vt 0.375000 0.500000
vt 0.625000 0.750000
vt 0.375000 0.750000
vt 0.625000 1.000000
vt 0.375000 1.000000
vt 0.125000 0.500000
vt 0.125000 0.750000
vt 0.875000 0.500000
vt 0.875000 0.750000
vt 0.375000 0.000000
vt 0.625000 0.000000
vt 0.625000 0.250000
vt 0.375000 0.250000
vt 0.625000 0.500000
vt 0.375000 0.500000
vt 0.625000 0.750000
vt 0.375000 0.750000
vt 0.625000 1.000000
vt 0.375000 1.000000
vt 0.125000 0.500000
vt 0.125000 0.750000
vt 0.875000 0.500000
vt 0.875000 0.750000
vt 0.375000 0.000000
vt 0.625000 0.000000
vt 0.625000 0.250000
vt 0.375000 0.250000
vt 0.625000 0.500000
vt 0.375000 0.500000
vt 0.625000 0.750000
vt 0.375000 0.750000
vt 0.625000 1.000000
vt 0.375000 1.000000
vt 0.125000 0.500000
vt 0.125000 0.750000
vt 0.875000 0.500000
vt 0.875000 0.750000
vt 0.375000 0.000000
vt 0.625000 0.000000
vt 0.625000 0.250000
vt 0.375000 0.250000
vt 0.625000 0.500000
vt 0.375000 0.500000
vt 0.625000 0.750000
vt 0.375000 0.750000
vt 0.625000 1.000000
vt 0.375000 1.000000
vt 0.125000 0.500000
vt 0.125000 0.750000
vt 0.875000 0.500000
vt 0.875000 0.750000
vt 0.375000 0.000000
vt 0.625000 0.000000
vt 0.625000 0.250000
vt 0.375000 0.250000
vt 0.625000 0.500000
vt 0.375000 0.500000
vt 0.625000 0.750000
vt 0.375000 0.750000
vt 0.625000 1.000000
vt 0.375000 1.000000
vt 0.125000 0.500000
vt 0.125000 0.750000
vt 0.875000 0.500000
vt 0.875000 0.750000
vn 0.0000 0.0000 -1.0000
vn 1.0000 0.0000 0.0000
vn 0.0000 -0.0000 1.0000
vn -1.0000 -0.0000 0.0000
vn 0.0000 -1.0000 -0.0000
vn 0.0000 1.0000 0.0000
usemtl Material.001
s off
f 1/1/1 2/2/1 4/3/1 3/4/1
f 3/4/2 4/3/2 8/5/2 7/6/2
f 7/6/3 8/5/3 6/7/3 5/8/3
f 5/8/4 6/7/4 2/9/4 1/10/4
f 3/11/5 7/6/5 5/8/5 1/12/5
f 8/5/6 4/13/6 2/14/6 6/7/6
f 9/15/1 10/16/1 12/17/1 11/18/1
f 11/18/2 12/17/2 16/19/2 15/20/2
f 15/20/3 16/19/3 14/21/3 13/22/3
f 13/22/4 14/21/4 10/23/4 9/24/4
f 11/25/5 15/20/5 13/22/5 9/26/5
f 16/19/6 12/27/6 10/28/6 14/21/6
f 17/29/1 18/30/1 20/31/1 19/32/1
f 19/32/2 20/31/2 24/33/2 23/34/2
f 23/34/3 24/33/3 22/35/3 21/36/3
f 21/36/4 22/35/4 18/37/4 17/38/4
f 19/39/5 23/34/5 21/36/5 17/40/5
f 24/33/6 20/41/6 18/42/6 22/35/6
f 25/43/1 26/44/1 28/45/1 27/46/1
f 27/46/2 28/45/2 32/47/2 31/48/2
f 31/48/3 32/47/3 30/49/3 29/50/3
f 29/50/4 30/49/4 26/51/4 25/52/4
f 27/53/5 31/48/5 29/50/5 25/54/5
f 32/47/6 28/55/6 26/56/6 30/49/6
f 33/57/1 34/58/1 36/59/1 35/60/1
f 35/60/2 36/59/2 40/61/2 39/62/2
f 39/62/3 40/61/3 38/63/3 37/64/3
f 37/64/4 38/63/4 34/65/4 33/66/4
f 35/67/5 39/62/5 37/64/5 33/68/5
f 40/61/6 36/69/6 34/70/6 38/63/6
o Cube.003_Cube.004
v -8.480750 4.377102 -8.955919
v -8.480750 73.496719 -8.955898
v -7.666149 4.377102 -8.955919
v -7.666149 73.496719 -8.955898
v -8.480751 4.377094 8.326300
v -8.480751 73.496719 8.326321
v -7.666150 4.377094 8.326300
v -7.666150 73.496719 8.326321
vt 0.375000 0.000000
vt 0.625000 0.000000
vt 0.625000 0.250000
vt 0.375000 0.250000
vt 0.625000 0.500000
vt 0.375000 0.500000
vt 0.625000 0.750000
vt 0.375000 0.750000
vt 0.625000 1.000000
vt 0.375000 1.000000
vt 0.125000 0.500000
vt 0.125000 0.750000
vt 0.875000 0.500000
vt 0.875000 0.750000
vn 0.0000 0.0000 -1.0000
vn 1.0000 0.0000 0.0000
vn 0.0000 -0.0000 1.0000
vn -1.0000 0.0000 -0.0000
vn 0.0000 -1.0000 -0.0000
vn 0.0000 1.0000 0.0000
usemtl None
s off
f 41/71/7 42/72/7 44/73/7 43/74/7
f 43/74/8 44/73/8 48/75/8 47/76/8
f 47/76/9 48/75/9 46/77/9 45/78/9
f 45/78/10 46/77/10 42/79/10 41/80/10
f 43/81/11 47/76/11 45/78/11 41/82/11
f 48/75/12 44/83/12 42/84/12 46/77/12
