# Blender v3.2.1 OBJ File: ''
# www.blender.org
mtllib chute.mtl
o Cube_Cube.001
v -15.446193 0.250007 -14.261528
v -15.446193 1.565843 -14.261528
v 14.352624 0.250007 -14.261526
v 14.352624 1.565843 -14.261526
v -15.446195 0.250000 12.164457
v -15.446195 1.565836 12.164457
v 14.352622 0.250000 12.164459
v 14.352622 1.565836 12.164459
v -15.604745 1.565840 10.993489
v -15.604745 54.603596 10.993503
v 14.352622 1.565840 10.993491
v 14.352622 54.603596 10.993505
v -15.604745 1.565839 12.164458
v -15.604745 54.603596 12.164472
v 14.352622 1.565839 12.164460
v 14.352622 54.603596 12.164474
v 13.789390 1.565844 -14.223226
v 13.789390 54.616329 -14.223212
v 14.352624 1.565844 -14.223226
v 14.352624 54.616329 -14.223212
v 13.789388 1.565837 12.164460
v 13.789388 54.616322 12.164474
v 14.352622 1.565837 12.164460
v 14.352622 54.616322 12.164474
v -15.478971 1.565844 -14.223227
v -15.478971 54.616329 -14.223213
v -14.915736 1.565844 -14.223227
v -14.915736 54.616329 -14.223213
v -15.478972 1.565837 12.164459
v -15.478972 54.616322 12.164473
v -14.915738 1.565837 12.164459
v -14.915738 54.616322 12.164473
v -15.604744 1.565840 -14.443704
v -15.604744 54.603596 -14.443690
v 14.352623 1.565840 -14.443702
v 14.352623 54.603596 -14.443688
v -15.604744 1.565840 -13.272735
v -15.604744 54.603596 -13.272721
v 14.352623 1.565840 -13.272733
v 14.352623 54.603596 -13.272719
vt 0.375000 0.000000
vt 0.625000 0.000000
vt 0.625000 0.250000
vt 0.375000 0.250000
vt 0.625000 0.500000
vt 0.375000 0.500000
vt 0.625000 0.750000
vt 0.375000 0.750000
vt 0.625000 1.000000
vt 0.375000 1.000000
vt 0.125000 0.500000
vt 0.125000 0.750000
vt 0.875000 0.500000
vt 0.875000 0.750000
vt 0.375000 0.000000
vt 0.625000 0.000000
vt 0.625000 0.250000
vt 0.375000 0.250000
vt 0.625000 0.500000
vt 0.375000 0.500000
vt 0.625000 0.750000
vt 0.375000 0.750000
vt 0.625000 1.000000
vt 0.375000 1.000000
vt 0.125000 0.500000
vt 0.125000 0.750000
vt 0.875000 0.500000
vt 0.875000 0.750000
vt 0.375000 0.000000
vt 0.625000 0.000000
vt 0.625000 0.250000
vt 0.375000 0.250000
vt 0.625000 0.500000
vt 0.375000 0.500000
vt 0.625000 0.750000
vt 0.375000 0.750000
vt 0.625000 1.000000
vt 0.375000 1.000000
vt 0.125000 0.500000
vt 0.125000 0.750000
vt 0.875000 0.500000
vt 0.875000 0.750000
vt 0.375000 0.000000
vt 0.625000 0.000000
vt 0.625000 0.250000
vt 0.375000 0.250000
vt 0.625000 0.500000
vt 0.375000 0.500000
vt 0.625000 0.750000
vt 0.375000 0.750000
vt 0.625000 1.000000
vt 0.375000 1.000000
vt 0.125000 0.500000
vt 0.125000 0.750000
vt 0.875000 0.500000
vt 0.875000 0.750000
vt 0.375000 0.000000
vt 0.625000 0.000000
vt 0.625000 0.250000
vt 0.375000 0.250000
vt 0.625000 0.500000
vt 0.375000 0.500000
vt 0.625000 0.750000
vt 0.375000 0.750000
vt 0.625000 1.000000
vt 0.375000 1.000000
vt 0.125000 0.500000
vt 0.125000 0.750000
vt 0.875000 0.500000
vt 0.875000 0.750000
vn 0.0000 0.0000 -1.0000
vn 1.0000 0.0000 0.0000
vn -0.0000 0.0000 1.0000
vn -1.0000 0.0000 -0.0000
vn 0.0000 -1.0000 -0.0000
vn -0.0000 1.0000 0.0000
usemtl Material.001
s off
f 1/1/1 2/2/1 4/3/1 3/4/1
f 3/4/2 4/3/2 8/5/2 7/6/2
f 7/6/3 8/5/3 6/7/3 5/8/3
f 5/8/4 6/7/4 2/9/4 1/10/4
f 3/11/5 7/6/5 5/8/5 1/12/5
f 8/5/6 4/13/6 2/14/6 6/7/6
f 9/15/1 10/16/1 12/17/1 11/18/1
f 11/18/2 12/17/2 16/19/2 15/20/2
f 15/20/3 16/19/3 14/21/3 13/22/3
f 13/22/4 14/21/4 10/23/4 9/24/4
f 11/25/5 15/20/5 13/22/5 9/26/5
f 16/19/6 12/27/6 10/28/6 14/21/6
f 17/29/1 18/30/1 20/31/1 19/32/1
f 19/32/2 20/31/2 24/33/2 23/34/2
f 23/34/3 24/33/3 22/35/3 21/36/3
f 21/36/4 22/35/4 18/37/4 17/38/4
f 19/39/5 23/34/5 21/36/5 17/40/5
f 24/33/6 20/41/6 18/42/6 22/35/6
f 25/43/1 26/44/1 28/45/1 27/46/1
f 27/46/2 28/45/2 32/47/2 31/48/2
f 31/48/3 32/47/3 30/49/3 29/50/3
f 29/50/4 30/49/4 26/51/4 25/52/4
f 27/53/5 31/48/5 29/50/5 25/54/5
f 32/47/6 28/55/6 26/56/6 30/49/6
f 33/57/1 34/58/1 36/59/1 35/60/1
f 35/60/2 36/59/2 40/61/2 39/62/2
f 39/62/3 40/61/3 38/63/3 37/64/3
f 37/64/4 38/63/4 34/65/4 33/66/4
f 35/67/5 39/62/5 37/64/5 33/68/5
f 40/61/6 36/69/6 34/70/6 38/63/6
